<svg xmlns="http://www.w3.org/2000/svg" aria-hidden="true" style="position:absolute;width:0;height:0;overflow:hidden">
  <defs>
    <symbol id="arrow-left" viewBox="0 0 32 32">
      <path d="m19.902 27.731-9.813-9.813H32v-4.571H10.089l9.813-9.813L16.67.302 1.34 15.632l15.33 15.33 3.232-3.232z"/>
    </symbol>
    <symbol id="arrow-right" viewBox="0 0 32 32">
      <path d="m12.098 27.731 3.232 3.232 15.33-15.33L15.33.303l-3.232 3.232 9.813 9.813H0v4.571h21.911l-9.813 9.813z"/>
    </symbol>
    <symbol id="burger" viewBox="0 0 43 32">
      <path d="M0 0h42.667v5.333H0V0zm10.667 13.333h32v5.333h-32v-5.333zM24 26.667h18.667V32H24v-5.333z"/>
    </symbol>
    <symbol id="chevron-right" viewBox="0 0 21 32">
      <path d="m4.552 31.437 15.219-15.219L4.552.999.781 4.77l11.448 11.448L.781 27.666l3.771 3.771z"/>
    </symbol>
    <symbol id="close" viewBox="0 0 32 32">
      <path d="M27.179.918 15.864 12.23 4.552.918.781 4.689l11.312 11.312L.781 27.313l3.771 3.771 11.312-11.312 11.315 11.312 3.771-3.771-11.312-11.312L30.95 4.689 27.179.918z"/>
    </symbol>
    <symbol id="content-bottom" viewBox="0 0 31 32">
      <path d="M15.869 20.689a.72.72 0 0 1-1.018 0L7.51 13.348a.72.72 0 0 1 0-1.018l.339-.339a.72.72 0 0 1 1.018 0l6.492 6.492 6.492-6.492a.72.72 0 0 1 1.018 0l.339.339a.72.72 0 0 1 0 1.018l-7.341 7.341z"/>
    </symbol>
    <symbol id="content-top" viewBox="0 0 31 32">
      <path d="M14.851 11.991a.72.72 0 0 1 1.018 0l7.341 7.341a.72.72 0 0 1 0 1.018l-.339.339a.72.72 0 0 1-1.018 0l-6.492-6.492-6.492 6.492a.72.72 0 0 1-1.018 0l-.339-.339a.72.72 0 0 1 0-1.018l7.341-7.341z"/>
    </symbol>
    <symbol id="email" viewBox="0 0 38 32">
      <path d="M33.882 1.581H3.764A3.769 3.769 0 0 0-.001 5.346v22.588a3.769 3.769 0 0 0 3.765 3.765h30.118a3.769 3.769 0 0 0 3.765-3.765V5.346a3.769 3.769 0 0 0-3.765-3.765zm0 3.765v.962L18.823 18.022 3.764 6.31v-.964h30.118zM3.765 27.934V11.076L17.668 21.89a1.873 1.873 0 0 0 2.312 0l13.903-10.814.004 16.858H3.766z"/>
    </symbol>
    <symbol id="location" viewBox="0 0 24 32">
      <path d="M12.191 19.565c3.362 0 6.095-2.734 6.095-6.095s-2.734-6.095-6.095-6.095c-3.362 0-6.095 2.734-6.095 6.095s2.734 6.095 6.095 6.095zm0-9.142c1.681 0 3.048 1.367 3.048 3.048s-1.367 3.048-3.048 3.048-3.048-1.367-3.048-3.048 1.367-3.048 3.048-3.048z"/>
      <path d="M11.307 31.472a1.522 1.522 0 0 0 1.768 0c.463-.328 11.351-8.189 11.307-18.002 0-6.722-5.469-12.19-12.191-12.19S.001 6.749.001 13.463c-.044 9.821 10.843 17.682 11.307 18.01zm.884-27.145c5.042 0 9.143 4.101 9.143 9.15.032 6.763-6.686 12.835-9.143 14.827-2.455-1.993-9.175-8.067-9.143-14.834 0-5.042 4.101-9.143 9.143-9.143z"/>
    </symbol>
    <symbol id="logo" viewBox="0 0 122 32">
      <path fill="#fefefd" d="m2.871 17.173-.004.28.004-.275v-.005z" style="fill:var(--color1, #fefefd)"/>
      <path fill="#010101" d="M22.338 3.474c.398-.021.828-.043 1.188.037.203.045.337.119.453.297.075.407.141.81.156 1.224.033.878.025 1.763.017 2.646-.004.4-.009.801-.009 1.2v7.608c0 .25.007.67.016 1.182.031 1.792.082 4.707-.08 5.35-.116.46-.351.672-.75.908-.356.045-.728.054-1.097.062-.193.004-.385.008-.574.017-1.776.09-3.652.273-5.284 1.027a6.693 6.693 0 0 0-1.258.732 8.66 8.66 0 0 0-.652.58c-.584.553-1.259 1.192-1.896 1.227-.734.04-1.43-.588-2.072-1.168-.306-.276-.6-.54-.879-.716-.678-.428-1.444-.758-2.205-1.007-1.254-.41-2.582-.621-3.898-.699-.199-.012-.404-.011-.609-.01-.382.001-.768.003-1.128-.077-.313-.07-.516-.229-.751-.438-.173-.41-.226-.917-.247-1.359a39.576 39.576 0 0 1-.018-2.388c.004-.353.008-.707.009-1.058l.006-6.729L.77 6.83c0-.222-.01-.463-.02-.713-.026-.676-.055-1.413.092-1.99.081-.317.264-.457.53-.626 2.919-.189 6.107.417 8.672 1.844.852.474 1.619 1.054 2.395 1.641.436-.325.876-.65 1.325-.957 2.414-1.65 5.289-2.464 8.202-2.537.119-.003.245-.01.374-.017zm-.337 2.285c-.354.003-.728-.019-1.078.027-2.396.217-5.47 1.093-7.097 3.001a5.916 5.916 0 0 0-.199.251l-.004 14.983c.266-.193.53-.393.8-.581 2.238-1.337 5.038-1.567 7.59-1.75 0-5.307.071-10.626-.011-15.932zM2.91 5.762c-.055 2.217-.043 4.443-.031 6.665.005.911.01 1.821.01 2.73 0 .668-.009 1.341-.017 2.016v.006c-.019 1.492-.037 2.993.037 4.469 2.948.254 5.907.545 8.362 2.347-.015-4.973.013-9.945.082-14.916-1.93-2.038-4.951-3.241-7.736-3.32a13.881 13.881 0 0 0-.707.004z" style="fill:var(--color2, #010101)"/>
      <path fill="#010101" d="M22.338 3.474zm1.188.037zm.453.296.35-.064-.013-.07-.039-.06-.298.194zm.156 1.225zm.017 2.646zm-.009 8.808h-.355.355zm.016 1.182zm-.079 5.35zm-.751.907.045.353.073-.009.063-.037-.18-.306zm-1.096.063zm-.574.017-.018-.355.018.355zm-5.284 1.027zm-1.258.731zm-.653.58zm-1.896 1.227.02.355-.02-.355zm-2.072-1.167zm-.88-.716zM7.412 24.68l.111-.338-.11.338zm-3.898-.699-.021.355.021-.355zm-.609-.01zm-1.128-.077-.077.347h.001l.077-.347zm-.751-.437-.328.138.031.075.061.054.236-.266zm-.248-1.36zM.76 19.709zm.008-1.058zm.006-6.729h.355v-.001H.774zM.768 6.83zm-.019-.713zm.092-1.99zm.53-.626-.023-.355-.091.006-.077.049.191.3zm8.672 1.843zm2.394 1.641-.214.284.213.161.214-.16-.212-.285zm1.326-.957zm8.202-2.537.009.355-.009-.355zm.036 2.268.355-.005-.006-.353-.353.003.003.355zm-1.078.027.032.354.015-.002-.047-.352zm-7.096 3.002-.27-.231-.001.001.271.229zm-.199.251-.284-.213-.071.095v.119h.355zm-.004 14.983h-.355v.698l.565-.41-.209-.287zm.799-.581-.182-.305-.01.006-.01.007.203.292zm7.59-1.75.025.355.33-.024v-.331h-.355zM2.91 5.762l-.012-.355-.335.011-.008.335.355.009zm-.031 6.665zm.01 2.73zm-.017 2.015-.355-.005v.005h.355zm0 .006.355.005v-.005h-.355zm.037 4.469-.355.018.016.31.309.027.03-.354zm8.362 2.347-.21.287.568.417-.002-.704-.355.001zm.083-14.917.355.005.002-.145-.099-.105-.258.244zM3.618 5.758l.01-.355h-.002l-.008.355zm18.72-2.284.019.355c.411-.022.788-.039 1.091.029l.155-.694c-.417-.093-.898-.065-1.284-.045l.019.355zm1.188.037-.077.347c.078.017.12.035.147.052a.275.275 0 0 1 .086.092l.595-.389a.974.974 0 0 0-.302-.304 1.128 1.128 0 0 0-.372-.145l-.077.347zm.453.296-.35.064c.074.405.136.787.151 1.174l.71-.026a8.793 8.793 0 0 0-.162-1.275l-.35.064zm.156 1.225-.355.013c.032.869.025 1.746.017 2.63l.711.007a57.72 57.72 0 0 0-.017-2.663l-.355.013zm.017 2.646-.355-.003c-.004.399-.008.803-.008 1.204h.711c0-.397.005-.795.008-1.197l-.355-.003zm-.009 1.2h-.355v7.608h.711V8.878h-.355zm0 7.608h-.355c0 .253.007.677.016 1.188l.711-.012c-.009-.513-.015-.93-.016-1.176h-.355zm.016 1.182-.355.006c.016.897.036 2.07.032 3.098-.002.514-.01.99-.027 1.374-.018.396-.044.664-.074.784l.689.173c.05-.201.078-.539.095-.926a33.9 33.9 0 0 0 .027-1.403c.004-1.037-.017-2.218-.032-3.113l-.355.006zm-.079 5.35-.345-.087a.882.882 0 0 1-.191.39 1.56 1.56 0 0 1-.395.298l.361.612c.21-.124.407-.258.568-.441.166-.188.277-.41.347-.687l-.345-.087zm-.751.907-.045-.353c-.335.042-.689.052-1.06.06l.016.711c.366-.008.756-.017 1.134-.065l-.045-.353zm-1.096.063-.008-.355c-.19.004-.389.008-.584.017l.018.355.018.355c.182-.009.368-.012.564-.017l-.008-.355zm-.574.017-.018-.355c-1.779.09-3.716.274-5.415 1.059l.298.645c1.564-.723 3.379-.904 5.153-.995l-.018-.355zm-5.284 1.027-.149-.323a7.183 7.183 0 0 0-1.325.771l.43.566a6.414 6.414 0 0 1 1.192-.692l-.149-.323zm-1.258.731-.215-.283a9.064 9.064 0 0 0-.681.604l.489.516a8.46 8.46 0 0 1 .623-.555l-.215-.283zm-.653.58-.244-.258c-.296.28-.594.561-.893.778-.305.221-.564.34-.779.352l.02.355.02.355c.422-.024.819-.241 1.157-.487.344-.249.675-.564.964-.837l-.244-.258zm-1.896 1.227-.02-.355c-.259.014-.54-.088-.858-.295s-.631-.488-.957-.782l-.476.528c.316.286.672.608 1.046.851s.808.434 1.284.408l-.02-.355zm-2.072-1.167.238-.264c-.299-.27-.617-.557-.928-.753l-.38.601c.249.157.519.398.831.679l.238-.264zm-.88-.716.19-.3c-.709-.448-1.504-.789-2.284-1.044l-.221.676c.74.242 1.479.561 2.125.97l.19-.3zM7.412 24.68l.11-.338c-1.289-.422-2.649-.636-3.987-.716l-.021.355-.021.355c1.293.077 2.59.284 3.808.682l.11-.338zm-3.898-.699.021-.355c-.212-.013-.429-.011-.632-.01l.001.355.001.355c.209-.001.402-.002.587.009l.021-.355zm-.609-.01-.001-.355c-.39.001-.735.001-1.05-.068l-.153.694c.405.089.832.086 1.206.085l-.001-.355zm-1.128-.077.077-.347c-.22-.049-.365-.155-.593-.357l-.471.532c.244.216.503.428.91.518l.077-.347zm-.751-.437.328-.138c-.147-.349-.199-.802-.22-1.239l-.71.034c.022.448.076 1.009.275 1.48l.328-.138zm-.248-1.36.355-.017a39.584 39.584 0 0 1-.018-2.366l-.711-.009c-.01.795-.02 1.606.019 2.409l.355-.017zM.76 19.709l.355.005c.004-.354.008-.709.009-1.063H.413c0 .349-.004.701-.009 1.054l.355.004zm.008-1.058h.355l.006-6.729-.711-.001-.006 6.729h.355zm.006-6.729h.355L1.123 6.83l-.711.001.006 5.092h.355zM.768 6.83h.355c0-.23-.01-.48-.02-.727l-.71.028c.01.252.019.486.02.699h.355zm-.019-.713.355-.014c-.027-.692-.05-1.372.082-1.888l-.689-.176C.334 4.676.368 5.47.394 6.131l.355-.014zm.092-1.99.344.088c.046-.178.126-.255.377-.415l-.382-.599c-.28.179-.567.383-.683.838l.344.088zm.53-.626.023.355c2.86-.185 5.978.41 8.476 1.8l.346-.621c-2.632-1.464-5.89-2.081-8.868-1.888l.023.355zm8.672 1.843-.173.311c.827.46 1.574 1.025 2.353 1.614l.429-.567c-.772-.584-1.559-1.18-2.436-1.668l-.173.311zm2.394 1.641.212.285a40.99 40.99 0 0 1 1.313-.949l-.401-.587a39.33 39.33 0 0 0-1.337.966l.212.285zm1.326-.957.201.293c2.351-1.606 5.157-2.404 8.01-2.475l-.009-.355-.009-.355c-2.971.074-5.915.905-8.393 2.599l.201.293zm8.202-2.537.009.355c.125-.003.258-.011.384-.017l-.038-.71c-.131.007-.251.014-.363.017l.009.355zm.036 2.268-.003-.355c-.319.003-.743-.02-1.122.03l.047.352.047.352c.321-.043.646-.021 1.034-.024l-.003-.355zm-1.078.027-.032-.354c-1.224.111-2.625.39-3.931.888-1.304.497-2.538 1.221-3.404 2.237l.541.461c.761-.893 1.877-1.561 3.116-2.034a14.364 14.364 0 0 1 3.742-.844l-.032-.354zm-7.096 3.002-.271-.229a6.865 6.865 0 0 0-.212.267l.568.427a5.88 5.88 0 0 1 .186-.236l-.271-.229zm-.199.251h-.355l-.004 14.983h.711l.004-14.983h-.355zm-.004 14.983.209.287c.274-.199.527-.391.793-.576l-.406-.584c-.274.19-.548.398-.806.585l.209.288zm.799-.581.182.305c2.154-1.287 4.866-1.516 7.433-1.7l-.025-.355-.026-.354c-2.536.182-5.424.412-7.746 1.799l.182.305zm7.59-1.75h.355c0-5.301.071-10.628-.011-15.937l-.711.011c.082 5.303.012 10.613.011 15.926h.355zM2.91 5.762l-.355-.009c-.055 2.223-.043 4.455-.031 6.675l.711-.004c-.012-2.223-.024-4.443.031-6.654l-.355-.009zm-.031 6.665-.355.002c.005.911.01 1.82.01 2.728h.711c0-.91-.005-1.822-.01-2.732l-.355.002zm.01 2.73h-.355c0 .665-.008 1.336-.017 2.011l.711.009c.009-.674.017-1.349.017-2.02H2.89zm-.017 2.015h-.355v.006h.711v-.006h-.355zm0 .006-.355-.005c-.019 1.49-.038 3.003.037 4.491l.71-.036c-.074-1.462-.055-2.952-.037-4.446l-.355-.005zm.037 4.469-.03.354c2.961.255 5.819.545 8.182 2.279l.421-.573c-2.548-1.869-5.608-2.161-8.542-2.414l-.03.354zm8.362 2.347.355-.001c-.014-4.97.013-9.94.082-14.91l-.711-.01c-.07 4.974-.097 9.948-.082 14.922l.355-.001zm.083-14.917.258-.244c-2.003-2.114-5.116-3.35-7.984-3.43l-.02.711c2.703.076 5.63 1.247 7.488 3.209l.258-.244zM3.618 5.758l.008-.355a14.684 14.684 0 0 0-.727.004l.023.71c.229-.008.459-.009.688-.004l.008-.355zM33.252 5.109c2.847-.049 7.642-.133 9.222.472 1.206.462 2.232 1.371 2.757 2.56.518 1.172.554 2.722.085 3.915-.501 1.274-1.421 1.812-2.611 2.325l.278.098c.255.088.512.177.751.295a4.709 4.709 0 0 1 2.338 2.673c.483 1.425.298 3.022-.357 4.357a5.254 5.254 0 0 1-2.018 1.965c-.745.417-1.482.583-2.322.695-1.278.17-8.692.282-9.624-.035-.126-.043-.251-.09-.308-.214-.137-.297-.156-.753-.17-1.104l-.004-.097c-.089-1.993-.06-4.013-.031-6.024.013-.895.025-1.788.027-2.676.002-.856-.009-1.718-.02-2.581-.022-1.683-.043-3.372.034-5.037.017-.361.047-.763.177-1.102.099-.259.226-.348.47-.463.357-.002.809-.011 1.325-.02zm7.118 10.819c-1.038-.247-4.314-.076-5.561-.075l.001 5.688c1.464.003 4.651.188 5.905-.134a2.618 2.618 0 0 0 1.183-.628c.564-.665.857-1.336.773-2.229-.075-.793-.414-1.468-1.031-1.977a3.178 3.178 0 0 0-1.27-.645zm-4.527-7.934c-.395.013-.75.024-1.036.024l.003 5.063c.332.001.737.011 1.179.023 1.46.037 3.323.085 4.296-.163a2.974 2.974 0 0 0 1.19-.594c.475-.576.734-1.233.673-1.99-.054-.665-.371-1.317-.902-1.729-1-.776-3.621-.691-5.403-.634zM62.625 16.433a7.504 7.504 0 0 0-14.875 1.979 7.504 7.504 0 0 0 14.875-1.98zm-7.952-3.268c.834-.041 1.569-.027 2.309.423.83.506 1.346 1.37 1.571 2.299.319 1.316.244 3.129-.496 4.3-.53.839-1.27 1.21-2.206 1.416-.898.09-1.789.006-2.559-.51-.811-.545-1.284-1.433-1.467-2.374-.261-1.336-.179-3.073.629-4.217.554-.785 1.293-1.172 2.219-1.336zM78.727 16.387a7.494 7.494 0 1 0-14.847 2.05 7.494 7.494 0 0 0 14.847-2.049zm-8.01-3.221c.811-.067 1.596-.041 2.325.367.866.485 1.395 1.337 1.641 2.277.354 1.351.284 3.093-.456 4.311-.524.863-1.271 1.265-2.226 1.479-.894.116-1.776.016-2.545-.489-.821-.54-1.297-1.418-1.497-2.361-.281-1.333-.19-3.05.587-4.208.527-.786 1.262-1.188 2.17-1.375zM81.718 4.503c.056-.005.112-.009.168-.011.557-.02 1.799-.128 2.177.383.161.217.185.672.205.94.085 1.132.016 2.316.016 3.453l.001 6.695c.792-.941 1.703-1.803 2.538-2.709.825-.894 1.617-1.923 2.531-2.719.218-.19.383-.29.664-.367.584-.159 2.698-.277 3.143.04.114.081.21.238.202.381-.04.637-4.249 4.788-4.983 5.514a578.476 578.476 0 0 0 4.085 5.861c.342.496 1.314 1.561 1.189 2.176a.497.497 0 0 1-.251.316c-.631.348-3.056.119-3.813-.128-.541-.544-.982-1.33-1.417-1.962l-2.634-3.841-1.259 1.094c-.005 1.007.296 3.971-.351 4.646-.29.303-.669.326-1.063.33-.603.006-1.769.107-2.209-.324-.113-1.16-.075-2.334-.076-3.499l-.002-4.973.001-6.813c0-1.211-.043-2.44.013-3.649.008-.163.012-.303.109-.442.232-.335.652-.341 1.019-.391zM107.329 10.035c.795-.017 2.377-.193 3.092.103.268.111.39.385.51.635.509 1.061.842 2.284 1.252 3.392.713 1.928 1.481 3.835 2.204 5.759.42-1.086 3.322-9.174 3.797-9.577.233-.197.675-.24.966-.248.612-.018 1.755-.153 2.219.274.117.276.102.426.034.722-.238 1.032-.743 2.104-1.113 3.098l-2.381 6.398-1.609 4.362c-.323.88-.608 1.822-1.028 2.659a5.416 5.416 0 0 1-.875 1.285c-.855.916-1.974 1.31-3.206 1.353-.528.018-1.434.116-1.841-.261-.26-.526-.282-1.753-.114-2.32.163-.552 1.373-.447 1.86-.721.785-.441.999-1.311 1.201-2.119-.63-1.906-5.376-13.56-5.33-14.219.02-.286.155-.409.362-.574zM99.532 9.979c.398-.061.835-.044 1.24-.04 1.609.016 3.409.355 4.567 1.565.532.556.921 1.397.862 2.181-.01.134-.047.325-.161.406-.578.408-2.155.328-2.842.236-.609-.082-.562-.489-.938-.935-.414-.491-1.019-.732-1.649-.777-.701-.051-1.587.177-2.109.669-.23.217-.473.777-.436 1.091.162 1.366 4.012 1.542 5.12 1.821.94.237 1.907.588 2.658 1.221.712.6 1.034 1.417 1.107 2.332.089 1.127-.24 2.206-.987 3.059-1.299 1.482-3.193 1.918-5.076 2.056-1.448.049-3.006-.149-4.308-.818-.945-.486-1.798-1.244-2.113-2.29-.129-.427-.215-.928.012-1.333.658-.516 2.457-.314 3.256-.285.27.41.434.892.803 1.231.621.572 1.536.745 2.356.704.67-.033 1.384-.224 1.833-.756a1.44 1.44 0 0 0 .355-1.058c-.148-1.55-3.966-1.544-5.147-1.817-.853-.196-1.723-.542-2.414-1.09-.728-.578-1.193-1.355-1.281-2.287a4.365 4.365 0 0 1 .977-3.148c1.094-1.326 2.667-1.776 4.316-1.937z" style="fill:var(--color2, #010101)"/>
    </symbol>
    <symbol id="phone" viewBox="0 0 30 32">
      <path d="M23.532 17.813a1.606 1.606 0 0 0-1.743-.347c-.194.081-.37.198-.519.347l-2.55 2.55c-1.182-.352-3.389-1.152-4.787-2.55s-2.198-3.605-2.55-4.787l2.55-2.55a1.606 1.606 0 0 0 .347-1.743 1.609 1.609 0 0 0-.347-.519l-6.4-6.4a1.606 1.606 0 0 0-1.743-.347c-.194.081-.37.198-.519.347L.932 6.153a3.201 3.201 0 0 0-.938 2.296c.037 2.278.64 10.192 6.877 16.429s14.15 6.838 16.43 6.877h.045c.845 0 1.643-.333 2.248-.938l4.339-4.339a1.606 1.606 0 0 0 .347-1.743 1.598 1.598 0 0 0-.347-.519l-6.4-6.402zm-.204 10.739c-1.997-.034-8.829-.57-14.197-5.939-5.386-5.386-5.907-12.242-5.939-14.198L6.4 5.207l4.138 4.138-2.069 2.069a1.6 1.6 0 0 0-.435 1.46c.038.184.978 4.547 3.634 7.203s7.019 3.595 7.203 3.634a1.582 1.582 0 0 0 1.459-.433l2.07-2.069 4.138 4.138-3.21 3.208z"/>
    </symbol>
  </defs>
</svg>
